%TF.GenerationSoftware,KiCad,Pcbnew,8.0.8-8.0.8-0~ubuntu20.04.1*%
%TF.CreationDate,2025-02-12T12:23:45+07:00*%
%TF.ProjectId,SolarSynth_digilog,536f6c61-7253-4796-9e74-685f64696769,rev?*%
%TF.SameCoordinates,Original*%
%TF.FileFunction,Profile,NP*%
%FSLAX46Y46*%
G04 Gerber Fmt 4.6, Leading zero omitted, Abs format (unit mm)*
G04 Created by KiCad (PCBNEW 8.0.8-8.0.8-0~ubuntu20.04.1) date 2025-02-12 12:23:45*
%MOMM*%
%LPD*%
G01*
G04 APERTURE LIST*
%TA.AperFunction,Profile*%
%ADD10C,0.100000*%
%TD*%
G04 APERTURE END LIST*
D10*
%TO.C,Ref\u002A\u002A*%
X144781392Y-116006750D02*
X144752092Y-116302150D01*
X144752092Y-116302150D02*
X144666592Y-116583550D01*
X144666592Y-116583550D02*
X144528092Y-116842950D01*
X144528092Y-116842950D02*
X144339892Y-117072550D01*
X144339892Y-117072550D02*
X144110292Y-117260750D01*
X144110292Y-117260750D02*
X143850892Y-117399250D01*
X143850892Y-117399250D02*
X143569492Y-117484750D01*
X143569492Y-117484750D02*
X143274092Y-117513950D01*
X143274092Y-117513950D02*
X143119992Y-117506150D01*
X143119992Y-117506150D02*
X142970292Y-117483350D01*
X142970292Y-117483350D02*
X142687392Y-117395550D01*
X142687392Y-117395550D02*
X142431392Y-117256550D01*
X142431392Y-117256550D02*
X142208292Y-117072550D01*
X142208292Y-117072550D02*
X142024292Y-116849450D01*
X142024292Y-116849450D02*
X141885292Y-116593450D01*
X141885292Y-116593450D02*
X141797492Y-116310450D01*
X141797492Y-116310450D02*
X141774592Y-116160850D01*
X141774592Y-116160850D02*
X141766892Y-116006750D01*
X141766892Y-116006750D02*
X141774592Y-115852650D01*
X141774592Y-115852650D02*
X141797492Y-115702950D01*
X141797492Y-115702950D02*
X141885292Y-115420050D01*
X141885292Y-115420050D02*
X142024292Y-115163950D01*
X142024292Y-115163950D02*
X142208292Y-114940950D01*
X142208292Y-114940950D02*
X142431392Y-114756850D01*
X142431392Y-114756850D02*
X142687392Y-114617950D01*
X142687392Y-114617950D02*
X142970292Y-114530050D01*
X142970292Y-114530050D02*
X143119992Y-114507250D01*
X143119992Y-114507250D02*
X143274092Y-114499450D01*
X143274092Y-114499450D02*
X143428192Y-114507250D01*
X143428192Y-114507250D02*
X143577892Y-114530050D01*
X143577892Y-114530050D02*
X143860792Y-114617950D01*
X143860792Y-114617950D02*
X144116792Y-114756850D01*
X144116792Y-114756850D02*
X144339892Y-114940950D01*
X144339892Y-114940950D02*
X144523892Y-115163950D01*
X144523892Y-115163950D02*
X144662892Y-115420050D01*
X144662892Y-115420050D02*
X144750692Y-115702950D01*
X144750692Y-115702950D02*
X144773592Y-115852650D01*
X144773592Y-115852650D02*
X144781392Y-116006750D01*
X144781392Y-116006750D02*
X144781392Y-116006750D01*
X144781392Y-116006750D02*
X144781392Y-116006750D01*
X92288412Y-116006750D02*
X92259182Y-116302150D01*
X92259182Y-116302150D02*
X92173682Y-116583550D01*
X92173682Y-116583550D02*
X92035182Y-116842950D01*
X92035182Y-116842950D02*
X91846952Y-117072550D01*
X91846952Y-117072550D02*
X91617382Y-117260750D01*
X91617382Y-117260750D02*
X91357962Y-117399250D01*
X91357962Y-117399250D02*
X91076582Y-117484750D01*
X91076582Y-117484750D02*
X90781162Y-117513950D01*
X90781162Y-117513950D02*
X90627052Y-117506150D01*
X90627052Y-117506150D02*
X90477392Y-117483350D01*
X90477392Y-117483350D02*
X90194472Y-117395550D01*
X90194472Y-117395550D02*
X89938442Y-117256550D01*
X89938442Y-117256550D02*
X89715372Y-117072550D01*
X89715372Y-117072550D02*
X89531322Y-116849450D01*
X89531322Y-116849450D02*
X89392352Y-116593450D01*
X89392352Y-116593450D02*
X89304522Y-116310450D01*
X89304522Y-116310450D02*
X89281682Y-116160850D01*
X89281682Y-116160850D02*
X89273902Y-116006750D01*
X89273902Y-116006750D02*
X89281682Y-115852650D01*
X89281682Y-115852650D02*
X89304522Y-115702950D01*
X89304522Y-115702950D02*
X89392352Y-115420050D01*
X89392352Y-115420050D02*
X89531322Y-115163950D01*
X89531322Y-115163950D02*
X89715372Y-114940950D01*
X89715372Y-114940950D02*
X89938442Y-114756850D01*
X89938442Y-114756850D02*
X90194472Y-114617950D01*
X90194472Y-114617950D02*
X90477392Y-114530050D01*
X90477392Y-114530050D02*
X90627052Y-114507250D01*
X90627052Y-114507250D02*
X90781162Y-114499450D01*
X90781162Y-114499450D02*
X91076582Y-114528650D01*
X91076582Y-114528650D02*
X91357962Y-114614150D01*
X91357962Y-114614150D02*
X91617382Y-114752650D01*
X91617382Y-114752650D02*
X91846952Y-114940950D01*
X91846952Y-114940950D02*
X92035182Y-115170450D01*
X92035182Y-115170450D02*
X92173682Y-115429950D01*
X92173682Y-115429950D02*
X92259182Y-115711250D01*
X92259182Y-115711250D02*
X92288412Y-116006750D01*
X92288412Y-116006750D02*
X92288412Y-116006750D01*
X92288412Y-116006750D02*
X92288412Y-116006750D01*
X144781392Y-33578410D02*
X144752092Y-33873830D01*
X144752092Y-33873830D02*
X144666592Y-34155210D01*
X144666592Y-34155210D02*
X144528092Y-34414630D01*
X144528092Y-34414630D02*
X144339892Y-34644200D01*
X144339892Y-34644200D02*
X144110292Y-34832430D01*
X144110292Y-34832430D02*
X143850892Y-34970930D01*
X143850892Y-34970930D02*
X143569492Y-35056430D01*
X143569492Y-35056430D02*
X143274092Y-35085660D01*
X143274092Y-35085660D02*
X143119992Y-35077880D01*
X143119992Y-35077880D02*
X142970292Y-35055040D01*
X142970292Y-35055040D02*
X142687392Y-34967220D01*
X142687392Y-34967220D02*
X142431392Y-34828250D01*
X142431392Y-34828250D02*
X142208292Y-34644200D01*
X142208292Y-34644200D02*
X142024292Y-34421130D01*
X142024292Y-34421130D02*
X141885292Y-34165100D01*
X141885292Y-34165100D02*
X141797492Y-33882170D01*
X141797492Y-33882170D02*
X141774592Y-33732520D01*
X141774592Y-33732520D02*
X141766892Y-33578410D01*
X141766892Y-33578410D02*
X141774592Y-33424300D01*
X141774592Y-33424300D02*
X141797492Y-33274640D01*
X141797492Y-33274640D02*
X141885292Y-32991720D01*
X141885292Y-32991720D02*
X142024292Y-32735690D01*
X142024292Y-32735690D02*
X142208292Y-32512620D01*
X142208292Y-32512620D02*
X142431392Y-32328570D01*
X142431392Y-32328570D02*
X142687392Y-32189600D01*
X142687392Y-32189600D02*
X142970292Y-32101780D01*
X142970292Y-32101780D02*
X143119992Y-32078940D01*
X143119992Y-32078940D02*
X143274092Y-32071150D01*
X143274092Y-32071150D02*
X143428192Y-32078940D01*
X143428192Y-32078940D02*
X143577892Y-32101780D01*
X143577892Y-32101780D02*
X143860792Y-32189600D01*
X143860792Y-32189600D02*
X144116792Y-32328570D01*
X144116792Y-32328570D02*
X144339892Y-32512620D01*
X144339892Y-32512620D02*
X144523892Y-32735690D01*
X144523892Y-32735690D02*
X144662892Y-32991720D01*
X144662892Y-32991720D02*
X144750692Y-33274640D01*
X144750692Y-33274640D02*
X144773592Y-33424300D01*
X144773592Y-33424300D02*
X144781392Y-33578410D01*
X144781392Y-33578410D02*
X144781392Y-33578410D01*
X144781392Y-33578410D02*
X144781392Y-33578410D01*
X92288412Y-33578410D02*
X92259182Y-33873830D01*
X92259182Y-33873830D02*
X92173682Y-34155210D01*
X92173682Y-34155210D02*
X92035182Y-34414630D01*
X92035182Y-34414630D02*
X91846952Y-34644200D01*
X91846952Y-34644200D02*
X91617382Y-34832430D01*
X91617382Y-34832430D02*
X91357962Y-34970930D01*
X91357962Y-34970930D02*
X91076582Y-35056430D01*
X91076582Y-35056430D02*
X90781162Y-35085660D01*
X90781162Y-35085660D02*
X90627052Y-35077880D01*
X90627052Y-35077880D02*
X90477392Y-35055040D01*
X90477392Y-35055040D02*
X90194472Y-34967220D01*
X90194472Y-34967220D02*
X89938442Y-34828250D01*
X89938442Y-34828250D02*
X89715372Y-34644200D01*
X89715372Y-34644200D02*
X89531322Y-34421130D01*
X89531322Y-34421130D02*
X89392352Y-34165100D01*
X89392352Y-34165100D02*
X89304522Y-33882170D01*
X89304522Y-33882170D02*
X89281682Y-33732520D01*
X89281682Y-33732520D02*
X89273902Y-33578410D01*
X89273902Y-33578410D02*
X89281682Y-33424300D01*
X89281682Y-33424300D02*
X89304522Y-33274640D01*
X89304522Y-33274640D02*
X89392352Y-32991720D01*
X89392352Y-32991720D02*
X89531322Y-32735690D01*
X89531322Y-32735690D02*
X89715372Y-32512620D01*
X89715372Y-32512620D02*
X89938442Y-32328570D01*
X89938442Y-32328570D02*
X90194472Y-32189600D01*
X90194472Y-32189600D02*
X90477392Y-32101780D01*
X90477392Y-32101780D02*
X90627052Y-32078940D01*
X90627052Y-32078940D02*
X90781162Y-32071150D01*
X90781162Y-32071150D02*
X91076582Y-32100380D01*
X91076582Y-32100380D02*
X91357962Y-32185890D01*
X91357962Y-32185890D02*
X91617382Y-32324390D01*
X91617382Y-32324390D02*
X91846952Y-32512620D01*
X91846952Y-32512620D02*
X92035182Y-32742180D01*
X92035182Y-32742180D02*
X92173682Y-33001610D01*
X92173682Y-33001610D02*
X92259182Y-33282980D01*
X92259182Y-33282980D02*
X92288412Y-33578410D01*
X92288412Y-33578410D02*
X92288412Y-33578410D01*
X92288412Y-33578410D02*
X92288412Y-33578410D01*
%TO.C,edge1*%
X86881051Y-34487090D02*
X86892801Y-114284200D01*
X86892801Y-114284200D02*
X86892801Y-114284200D01*
X86892801Y-114284200D02*
X86947132Y-114874200D01*
X86934902Y-34055710D02*
X86881051Y-34487090D01*
X86947132Y-114874200D02*
X87039149Y-115425500D01*
X87031329Y-33622540D02*
X86934902Y-34055710D01*
X87039149Y-115425500D02*
X87167859Y-115939200D01*
X87167859Y-115939200D02*
X87332259Y-116416300D01*
X87169309Y-33191580D02*
X87031329Y-33622540D01*
X87332259Y-116416300D02*
X87531359Y-116857800D01*
X87347839Y-32766860D02*
X87169309Y-33191580D01*
X87531359Y-116857800D02*
X87764149Y-117264700D01*
X87565879Y-32352360D02*
X87347839Y-32766860D01*
X87764149Y-117264700D02*
X88029629Y-117638100D01*
X87822439Y-31952110D02*
X87565879Y-32352360D01*
X88029629Y-117638100D02*
X88326809Y-117979000D01*
X88116479Y-31570110D02*
X87822439Y-31952110D01*
X88326809Y-117979000D02*
X88654689Y-118288500D01*
X88446999Y-31210360D02*
X88116479Y-31570110D01*
X88654689Y-118288500D02*
X89012269Y-118567400D01*
X88812969Y-30876890D02*
X88446999Y-31210360D01*
X89012269Y-118567400D02*
X89398549Y-118816900D01*
X89213379Y-30573690D02*
X88812969Y-30876890D01*
X89398549Y-118816900D02*
X89812529Y-119038100D01*
X89647219Y-30304770D02*
X89213379Y-30573690D01*
X89812529Y-119038100D02*
X90253219Y-119231800D01*
X90113459Y-30074140D02*
X89647219Y-30304770D01*
X90253219Y-119231800D02*
X90719609Y-119399200D01*
X90611089Y-29885810D02*
X90113459Y-30074140D01*
X90719609Y-119399200D02*
X91210709Y-119541200D01*
X91139089Y-29743790D02*
X90611089Y-29885810D01*
X91210709Y-119541200D02*
X91725519Y-119658900D01*
X91696449Y-29652080D02*
X91139089Y-29743790D01*
X91725519Y-119658900D02*
X141954549Y-119658900D01*
X92282139Y-29614700D02*
X91696449Y-29652080D01*
X141954549Y-29642620D02*
X92282139Y-29614700D01*
X141954549Y-119658900D02*
X142228249Y-119633700D01*
X142228249Y-119633700D02*
X142540849Y-119574000D01*
X142540849Y-119574000D02*
X142884849Y-119479500D01*
X142558249Y-29757980D02*
X141954549Y-29642620D01*
X142884849Y-119479500D02*
X143252649Y-119349500D01*
X143112149Y-29907760D02*
X142558249Y-29757980D01*
X143252649Y-119349500D02*
X143636749Y-119183400D01*
X143618549Y-30089940D02*
X143112149Y-29907760D01*
X143636749Y-119183400D02*
X144029849Y-118980600D01*
X144029849Y-118980600D02*
X144424249Y-118740700D01*
X144079349Y-30302490D02*
X143618549Y-30089940D01*
X144424249Y-118740700D02*
X144812449Y-118463100D01*
X144496649Y-30543400D02*
X144079349Y-30302490D01*
X144812449Y-118463100D02*
X145187149Y-118147100D01*
X144872349Y-30810640D02*
X144496649Y-30543400D01*
X145187149Y-118147100D02*
X145540649Y-117792200D01*
X145208749Y-31102200D02*
X144872349Y-30810640D01*
X145507649Y-31416060D02*
X145208749Y-31102200D01*
X145540649Y-117792200D02*
X145865649Y-117397800D01*
X145771349Y-31750190D02*
X145507649Y-31416060D01*
X145865649Y-117397800D02*
X146154449Y-116963500D01*
X146001649Y-32102580D02*
X145771349Y-31750190D01*
X146154449Y-116963500D02*
X146283049Y-116731100D01*
X146200649Y-32471190D02*
X146001649Y-32102580D01*
X146283049Y-116731100D02*
X146399749Y-116488500D01*
X146370549Y-32854030D02*
X146200649Y-32471190D01*
X146399749Y-116488500D02*
X146503649Y-116235700D01*
X146503649Y-116235700D02*
X146593849Y-115972400D01*
X146513249Y-33249050D02*
X146370549Y-32854030D01*
X146593849Y-115972400D02*
X146669449Y-115698800D01*
X146630849Y-33654250D02*
X146513249Y-33249050D01*
X146669449Y-115698800D02*
X146729449Y-115414600D01*
X146725449Y-34067610D02*
X146630849Y-33654250D01*
X146729449Y-115414600D02*
X146772949Y-115119900D01*
X146772949Y-115119900D02*
X146798949Y-114814500D01*
X146798949Y-34487090D02*
X146725449Y-34067610D01*
X146798949Y-114814500D02*
X146798949Y-34487090D01*
%TD*%
M02*
