M48
; DRILL file {KiCad 8.0.8-8.0.8-0~ubuntu20.04.1} date 2025-02-12T12:23:48+0700
; FORMAT={-:-/ absolute / inch / decimal}
; #@! TF.CreationDate,2025-02-12T12:23:48+07:00
; #@! TF.GenerationSoftware,Kicad,Pcbnew,8.0.8-8.0.8-0~ubuntu20.04.1
; #@! TF.FileFunction,Plated,1,2,PTH
FMAT,2
INCH
; #@! TA.AperFunction,Plated,PTH,ComponentDrill
T1C0.0315
; #@! TA.AperFunction,Plated,PTH,ComponentDrill
T2C0.0394
; #@! TA.AperFunction,Plated,PTH,ComponentDrill
T3C0.0472
; #@! TA.AperFunction,Plated,PTH,ComponentDrill
T4C0.0630
; #@! TA.AperFunction,Plated,PTH,ComponentDrill
T5C0.1378
%
G90
G05
T1
X4.2998Y-3.05
X4.2998Y-3.35
X4.3998Y-3.05
X4.3998Y-3.35
X4.425Y-2.05
X4.425Y-2.15
X4.425Y-2.25
X4.425Y-2.35
X4.4998Y-3.05
X4.4998Y-3.35
X4.5998Y-3.05
X4.5998Y-3.35
X4.6998Y-3.05
X4.6998Y-3.35
X4.725Y-2.05
X4.725Y-2.15
X4.725Y-2.25
X4.725Y-2.35
X4.7998Y-3.05
X4.7998Y-3.35
X4.8998Y-3.05
X4.8998Y-3.35
T2
X3.7Y-3.9591
X3.7984Y-3.9591
X3.8969Y-3.9591
X4.5Y-3.9638
X4.5984Y-3.9638
X4.6969Y-3.9638
X5.3016Y-3.9543
X5.4Y-3.9543
X5.4984Y-3.9543
T3
X4.2Y-2.55
X4.5Y-2.65
X4.7Y-2.65
X4.95Y-2.55
T5
X3.62Y-2.17
X5.59Y-2.175
T4
G00X3.6094Y-4.2661
M15
G01X3.6094Y-4.2425
M16
G05
G00X3.9874Y-4.2661
M15
G01X3.9874Y-4.2425
M16
G05
G00X4.4094Y-4.2709
M15
G01X4.4094Y-4.2472
M16
G05
G00X4.7874Y-4.2709
M15
G01X4.7874Y-4.2472
M16
G05
G00X5.211Y-4.2614
M15
G01X5.211Y-4.2378
M16
G05
G00X5.589Y-4.2614
M15
G01X5.589Y-4.2378
M16
G05
M30
