  0
SECTION
  2
HEADER
  9
$ACADVER
  1
AC1014
  9
$HANDSEED
  5
FFFF
  9
$MEASUREMENT
 70
     1
  0
ENDSEC
  0
SECTION
  2
TABLES
  0
TABLE
  2
VPORT
  5
8
330
0
100
AcDbSymbolTable
 70
     4
  0
VPORT
  5
2E
330
8
100
AcDbSymbolTableRecord
100
AcDbViewportTableRecord
  2
*ACTIVE
 70
     0
 10
0.0
 20
0.0
 11
1.0
 21
1.0
 12
210.0
 22
148.5
 13
0.0
 23
0.0
 14
10.0
 24
10.0
 15
10.0
 25
10.0
 16
0.0
 26
0.0
 36
1.0
 17
0.0
 27
0.0
 37
0.0
 40
341.0
 41
1.24
 42
50.0
 43
0.0
 44
0.0
 50
0.0
 51
0.0
 71
     0
 72
   100
 73
     1
 74
     3
 75
     0
 76
     0
 77
     0
 78
     0
  0
ENDTAB
  0
TABLE
  2
LTYPE
  5
5
330
0
100
AcDbSymbolTable
 70
     1
  0
LTYPE
  5
14
330
5
100
AcDbSymbolTableRecord
100
AcDbLinetypeTableRecord
  2
BYBLOCK
 70
     0
  3

 72
    65
 73
     0
 40
0.0
  0
LTYPE
  5
15
330
5
100
AcDbSymbolTableRecord
100
AcDbLinetypeTableRecord
  2
BYLAYER
 70
     0
  3

 72
    65
 73
     0
 40
0.0
  0
LTYPE
  5
16
330
5
100
AcDbSymbolTableRecord
100
AcDbLinetypeTableRecord
  2
CONTINUOUS
 70
     0
  3
Solid line
 72
    65
 73
     0
 40
0.0
  0
ENDTAB
  0
TABLE
  2
LAYER
  5
2
100
AcDbSymbolTable
 70
3
  0
LAYER
  5
50
100
AcDbSymbolTableRecord
100
AcDbLayerTableRecord
  2
0
 70
0
  6
CONTINUOUS
  0
LAYER
  5
51
100
AcDbSymbolTableRecord
100
AcDbLayerTableRecord
  2
baord
 70
0
  6
CONTINUOUS
  0
LAYER
  5
52
100
AcDbSymbolTableRecord
100
AcDbLayerTableRecord
  2
Layer_1
 70
0
  6
CONTINUOUS
  0
ENDTAB
  0
TABLE
  2
STYLE
  5
3
330
0
100
AcDbSymbolTable
 70
     1
  0
STYLE
  5
11
330
3
100
AcDbSymbolTableRecord
100
AcDbTextStyleTableRecord
  2
STANDARD
 70
     0
 40
0.0
 41
1.0
 50
0.0
 71
     0
 42
2.5
  3
txt
  4

  0
ENDTAB
  0
TABLE
  2
VIEW
  5
6
330
0
100
AcDbSymbolTable
 70
     0
  0
ENDTAB
  0
TABLE
  2
UCS
  5
7
330
0
100
AcDbSymbolTable
 70
     0
  0
ENDTAB
  0
TABLE
  2
APPID
  5
9
330
0
100
AcDbSymbolTable
 70
     2
  0
APPID
  5
12
330
9
100
AcDbSymbolTableRecord
100
AcDbRegAppTableRecord
  2
ACAD
 70
     0
  0
ENDTAB
  0
TABLE
  2
DIMSTYLE
  5
A
330
0
100
AcDbSymbolTable
 70
     1
  0
DIMSTYLE
105
27
330
A
100
AcDbSymbolTableRecord
100
AcDbDimStyleTableRecord
  2
ISO-25
 70
     0
  3

  4

  5

  6

  7

 40
1.0
 41
2.5
 42
0.625
 43
3.75
 44
1.25
 45
0.0
 46
0.0
 47
0.0
 48
0.0
140
2.5
141
2.5
142
0.0
143
0.03937007874016
144
1.0
145
0.0
146
1.0
147
0.625
 71
     0
 72
     0
 73
     0
 74
     0
 75
     0
 76
     0
 77
     1
 78
     8
170
     0
171
     3
172
     1
173
     0
174
     0
175
     0
176
     0
177
     0
178
     0
270
     2
271
     2
272
     2
273
     2
274
     3
340
11
275
     0
280
     0
281
     0
282
     0
283
     0
284
     8
285
     0
286
     0
287
     3
288
     0
  0
ENDTAB
  0
TABLE
  2
BLOCK_RECORD
  5
1
330
0
100
AcDbSymbolTable
 70
     1
  0
BLOCK_RECORD
  5
1F
330
1
100
AcDbSymbolTableRecord
100
AcDbBlockTableRecord
  2
*MODEL_SPACE
  0
BLOCK_RECORD
  5
1B
330
1
100
AcDbSymbolTableRecord
100
AcDbBlockTableRecord
  2
*PAPER_SPACE
  0
ENDTAB
  0
ENDSEC
  0
SECTION
  2
BLOCKS
  0
BLOCK
  5
20
330
1F
100
AcDbEntity
  8
0
100
AcDbBlockBegin
  2
*MODEL_SPACE
 70
     0
 10
0.0
 20
0.0
 30
0.0
  3
*MODEL_SPACE
  1

  0
ENDBLK
  5
21
330
1F
100
AcDbEntity
  8
0
100
AcDbBlockEnd
  0
BLOCK
  5
1C
330
1B
100
AcDbEntity
 67
     1
  8
0
100
AcDbBlockBegin
  2
*PAPER_SPACE
  1

  0
ENDBLK
  5
1D
330
1B
100
AcDbEntity
 67
     1
  8
0
100
AcDbBlockEnd
  0
ENDSEC
  0
SECTION
  2
ENTITIES
  0
LWPOLYLINE
  5
100
100
AcDbEntity
  8
Layer_1
 62
1
100
AcDbPolyline
 90
69
 70
1
 10
110.218260
 20
127.077840
 30
0.0
 10
159.334060
 20
127.077840
 30
0.0
 10
159.890670
 20
127.049940
 30
0.0
 10
160.430860
 20
126.967940
 30
0.0
 10
160.951860
 20
126.834570
 30
0.0
 10
161.451160
 20
126.652520
 30
0.0
 10
161.925970
 20
126.424480
 30
0.0
 10
162.373570
 20
126.153120
 30
0.0
 10
162.791260
 20
125.841140
 30
0.0
 10
163.176360
 20
125.491220
 30
0.0
 10
163.526360
 20
125.106060
 30
0.0
 10
163.838260
 20
124.688350
 30
0.0
 10
164.109660
 20
124.240760
 30
0.0
 10
164.337660
 20
123.765990
 30
0.0
 10
164.519760
 20
123.266720
 30
0.0
 10
164.653160
 20
122.745650
 30
0.0
 10
164.735060
 20
122.205460
 30
0.0
 10
164.763060
 20
121.648840
 30
0.0
 10
164.763060
 20
42.434650
 30
0.0
 10
164.735060
 20
41.878050
 30
0.0
 10
164.653160
 20
41.337850
 30
0.0
 10
164.519760
 20
40.816850
 30
0.0
 10
164.337660
 20
40.317550
 30
0.0
 10
164.109660
 20
39.842750
 30
0.0
 10
163.838260
 20
39.395150
 30
0.0
 10
163.526360
 20
38.977450
 30
0.0
 10
163.176360
 20
38.592350
 30
0.0
 10
162.791260
 20
38.242450
 30
0.0
 10
162.373570
 20
37.930450
 30
0.0
 10
161.925970
 20
37.659050
 30
0.0
 10
161.451160
 20
37.431050
 30
0.0
 10
160.951860
 20
37.248950
 30
0.0
 10
160.430860
 20
37.115650
 30
0.0
 10
159.890670
 20
37.033650
 30
0.0
 10
159.334060
 20
37.005650
 30
0.0
 10
110.218260
 20
37.005650
 30
0.0
 10
109.661640
 20
37.033650
 30
0.0
 10
109.121440
 20
37.115650
 30
0.0
 10
108.600380
 20
37.248950
 30
0.0
 10
108.101100
 20
37.431050
 30
0.0
 10
107.626330
 20
37.659050
 30
0.0
 10
107.178740
 20
37.930450
 30
0.0
 10
106.761020
 20
38.242450
 30
0.0
 10
106.375870
 20
38.592350
 30
0.0
 10
106.025950
 20
38.977450
 30
0.0
 10
105.713980
 20
39.395150
 30
0.0
 10
105.442610
 20
39.842750
 30
0.0
 10
105.214560
 20
40.317550
 30
0.0
 10
105.032510
 20
40.816850
 30
0.0
 10
104.899160
 20
41.337850
 30
0.0
 10
104.817160
 20
41.878050
 30
0.0
 10
104.789260
 20
42.434650
 30
0.0
 10
104.789260
 20
121.648840
 30
0.0
 10
104.817160
 20
122.205460
 30
0.0
 10
104.899160
 20
122.745650
 30
0.0
 10
105.032510
 20
123.266720
 30
0.0
 10
105.214560
 20
123.765990
 30
0.0
 10
105.442610
 20
124.240760
 30
0.0
 10
105.713980
 20
124.688350
 30
0.0
 10
106.025950
 20
125.106060
 30
0.0
 10
106.375870
 20
125.491220
 30
0.0
 10
106.761020
 20
125.841140
 30
0.0
 10
107.178740
 20
126.153120
 30
0.0
 10
107.626330
 20
126.424480
 30
0.0
 10
108.101100
 20
126.652520
 30
0.0
 10
108.600380
 20
126.834570
 30
0.0
 10
109.121440
 20
126.967940
 30
0.0
 10
109.661640
 20
127.049940
 30
0.0
 10
110.218260
 20
127.077840
 30
0.0
  0
LWPOLYLINE
  5
101
100
AcDbEntity
  8
Layer_1
 62
1
100
AcDbPolyline
 90
39
 70
1
 10
162.710650
 20
40.686740
 30
0.0
 10
162.681350
 20
40.391340
 30
0.0
 10
162.595850
 20
40.109940
 30
0.0
 10
162.457350
 20
39.850540
 30
0.0
 10
162.269150
 20
39.620940
 30
0.0
 10
162.039550
 20
39.432740
 30
0.0
 10
161.780150
 20
39.294240
 30
0.0
 10
161.498750
 20
39.208740
 30
0.0
 10
161.203350
 20
39.179540
 30
0.0
 10
161.049250
 20
39.187540
 30
0.0
 10
160.899550
 20
39.210340
 30
0.0
 10
160.616650
 20
39.298140
 30
0.0
 10
160.360650
 20
39.437140
 30
0.0
 10
160.137550
 20
39.621140
 30
0.0
 10
159.953550
 20
39.844240
 30
0.0
 10
159.814550
 20
40.100240
 30
0.0
 10
159.726750
 20
40.383240
 30
0.0
 10
159.703850
 20
40.532840
 30
0.0
 10
159.695850
 20
40.686940
 30
0.0
 10
159.703850
 20
40.841040
 30
0.0
 10
159.726750
 20
40.990740
 30
0.0
 10
159.814550
 20
41.273640
 30
0.0
 10
159.953550
 20
41.529740
 30
0.0
 10
160.137550
 20
41.752740
 30
0.0
 10
160.360650
 20
41.936840
 30
0.0
 10
160.616650
 20
42.075740
 30
0.0
 10
160.899550
 20
42.163640
 30
0.0
 10
161.049250
 20
42.186440
 30
0.0
 10
161.203350
 20
42.194440
 30
0.0
 10
161.357450
 20
42.186440
 30
0.0
 10
161.507150
 20
42.163640
 30
0.0
 10
161.790050
 20
42.075740
 30
0.0
 10
162.046050
 20
41.936840
 30
0.0
 10
162.269150
 20
41.752740
 30
0.0
 10
162.453150
 20
41.529740
 30
0.0
 10
162.592150
 20
41.273640
 30
0.0
 10
162.679950
 20
40.990740
 30
0.0
 10
162.702850
 20
40.841040
 30
0.0
 10
162.710850
 20
40.686940
 30
0.0
  0
LWPOLYLINE
  5
102
100
AcDbEntity
  8
Layer_1
 62
1
100
AcDbPolyline
 90
37
 70
1
 10
110.210290
 20
40.688360
 30
0.0
 10
110.181090
 20
40.392960
 30
0.0
 10
110.095590
 20
40.111560
 30
0.0
 10
109.957090
 20
39.852160
 30
0.0
 10
109.768860
 20
39.622560
 30
0.0
 10
109.539290
 20
39.434360
 30
0.0
 10
109.279870
 20
39.295860
 30
0.0
 10
108.998490
 20
39.210360
 30
0.0
 10
108.703070
 20
39.181160
 30
0.0
 10
108.548960
 20
39.189160
 30
0.0
 10
108.399300
 20
39.211960
 30
0.0
 10
108.116380
 20
39.299760
 30
0.0
 10
107.860350
 20
39.438760
 30
0.0
 10
107.637280
 20
39.622760
 30
0.0
 10
107.453230
 20
39.845860
 30
0.0
 10
107.314260
 20
40.101860
 30
0.0
 10
107.226460
 20
40.384860
 30
0.0
 10
107.203660
 20
40.534460
 30
0.0
 10
107.195660
 20
40.688560
 30
0.0
 10
107.203660
 20
40.842660
 30
0.0
 10
107.226460
 20
40.992360
 30
0.0
 10
107.314260
 20
41.275260
 30
0.0
 10
107.453230
 20
41.531360
 30
0.0
 10
107.637280
 20
41.754360
 30
0.0
 10
107.860350
 20
41.938460
 30
0.0
 10
108.116380
 20
42.077360
 30
0.0
 10
108.399300
 20
42.165260
 30
0.0
 10
108.548960
 20
42.188060
 30
0.0
 10
108.703070
 20
42.196060
 30
0.0
 10
108.998490
 20
42.166860
 30
0.0
 10
109.279870
 20
42.081360
 30
0.0
 10
109.539290
 20
41.942860
 30
0.0
 10
109.768860
 20
41.754560
 30
0.0
 10
109.957090
 20
41.525060
 30
0.0
 10
110.095590
 20
41.265560
 30
0.0
 10
110.181090
 20
40.984260
 30
0.0
 10
110.210290
 20
40.688760
 30
0.0
  0
LWPOLYLINE
  5
103
100
AcDbEntity
  8
Layer_1
 62
1
100
AcDbPolyline
 90
37
 70
1
 10
112.030430
 20
101.641880
 30
0.0
 10
111.990930
 20
101.242420
 30
0.0
 10
111.875310
 20
100.861900
 30
0.0
 10
111.688030
 20
100.511130
 30
0.0
 10
111.433490
 20
100.200650
 30
0.0
 10
111.123060
 20
99.946160
 30
0.0
 10
110.772260
 20
99.758870
 30
0.0
 10
110.391760
 20
99.643250
 30
0.0
 10
109.992280
 20
99.603750
 30
0.0
 10
109.783890
 20
99.614250
 30
0.0
 10
109.581510
 20
99.645050
 30
0.0
 10
109.198930
 20
99.763770
 30
0.0
 10
108.852720
 20
99.951740
 30
0.0
 10
108.551070
 20
100.200550
 30
0.0
 10
108.302190
 20
100.502240
 30
0.0
 10
108.114270
 20
100.848410
 30
0.0
 10
107.995500
 20
101.231100
 30
0.0
 10
107.964600
 20
101.433400
 30
0.0
 10
107.954100
 20
101.641780
 30
0.0
 10
107.964600
 20
101.850160
 30
0.0
 10
107.995500
 20
102.052590
 30
0.0
 10
108.114270
 20
102.435140
 30
0.0
 10
108.302190
 20
102.781450
 30
0.0
 10
108.551070
 20
103.083000
 30
0.0
 10
108.852720
 20
103.331950
 30
0.0
 10
109.198930
 20
103.519780
 30
0.0
 10
109.581510
 20
103.638640
 30
0.0
 10
109.783890
 20
103.669440
 30
0.0
 10
109.992280
 20
103.679940
 30
0.0
 10
110.391760
 20
103.640440
 30
0.0
 10
110.772260
 20
103.524820
 30
0.0
 10
111.123060
 20
103.337530
 30
0.0
 10
111.433500
 20
103.082900
 30
0.0
 10
111.688030
 20
102.772560
 30
0.0
 10
111.875320
 20
102.421650
 30
0.0
 10
111.990930
 20
102.041270
 30
0.0
 10
112.030430
 20
101.641680
 30
0.0
  0
LWPOLYLINE
  5
104
100
AcDbEntity
  8
Layer_1
 62
1
100
AcDbPolyline
 90
39
 70
1
 10
162.711050
 20
123.116780
 30
0.0
 10
162.681750
 20
122.821360
 30
0.0
 10
162.596250
 20
122.539980
 30
0.0
 10
162.457750
 20
122.280560
 30
0.0
 10
162.269550
 20
122.050990
 30
0.0
 10
162.039950
 20
121.862760
 30
0.0
 10
161.780560
 20
121.724260
 30
0.0
 10
161.499150
 20
121.638760
 30
0.0
 10
161.203750
 20
121.609560
 30
0.0
 10
161.049650
 20
121.617560
 30
0.0
 10
160.899950
 20
121.640360
 30
0.0
 10
160.617060
 20
121.728160
 30
0.0
 10
160.361050
 20
121.867130
 30
0.0
 10
160.137950
 20
122.051180
 30
0.0
 10
159.953950
 20
122.274250
 30
0.0
 10
159.814960
 20
122.530280
 30
0.0
 10
159.727160
 20
122.813210
 30
0.0
 10
159.704260
 20
122.962860
 30
0.0
 10
159.696260
 20
123.116970
 30
0.0
 10
159.704260
 20
123.271080
 30
0.0
 10
159.727160
 20
123.420740
 30
0.0
 10
159.814960
 20
123.703660
 30
0.0
 10
159.953950
 20
123.959690
 30
0.0
 10
160.137950
 20
124.182760
 30
0.0
 10
160.361050
 20
124.366810
 30
0.0
 10
160.617060
 20
124.505780
 30
0.0
 10
160.899950
 20
124.593580
 30
0.0
 10
161.049650
 20
124.616380
 30
0.0
 10
161.203750
 20
124.624380
 30
0.0
 10
161.357850
 20
124.616380
 30
0.0
 10
161.507550
 20
124.593580
 30
0.0
 10
161.790450
 20
124.505780
 30
0.0
 10
162.046450
 20
124.366810
 30
0.0
 10
162.269550
 20
124.182760
 30
0.0
 10
162.453550
 20
123.959690
 30
0.0
 10
162.592550
 20
123.703660
 30
0.0
 10
162.680350
 20
123.420740
 30
0.0
 10
162.703250
 20
123.271080
 30
0.0
 10
162.711250
 20
123.116970
 30
0.0
  0
LWPOLYLINE
  5
105
100
AcDbEntity
  8
Layer_1
 62
1
100
AcDbPolyline
 90
37
 70
1
 10
110.223170
 20
123.126120
 30
0.0
 10
110.193970
 20
122.830700
 30
0.0
 10
110.108470
 20
122.549320
 30
0.0
 10
109.969970
 20
122.289900
 30
0.0
 10
109.781740
 20
122.060330
 30
0.0
 10
109.552170
 20
121.872100
 30
0.0
 10
109.292750
 20
121.733600
 30
0.0
 10
109.011370
 20
121.648100
 30
0.0
 10
108.715950
 20
121.618900
 30
0.0
 10
108.561840
 20
121.626900
 30
0.0
 10
108.412180
 20
121.649700
 30
0.0
 10
108.129260
 20
121.737500
 30
0.0
 10
107.873230
 20
121.876470
 30
0.0
 10
107.650160
 20
122.060520
 30
0.0
 10
107.466110
 20
122.283590
 30
0.0
 10
107.327140
 20
122.539620
 30
0.0
 10
107.239340
 20
122.822550
 30
0.0
 10
107.216540
 20
122.972200
 30
0.0
 10
107.208540
 20
123.126310
 30
0.0
 10
107.216540
 20
123.280420
 30
0.0
 10
107.239340
 20
123.430080
 30
0.0
 10
107.327140
 20
123.713000
 30
0.0
 10
107.466110
 20
123.969030
 30
0.0
 10
107.650160
 20
124.192100
 30
0.0
 10
107.873230
 20
124.376150
 30
0.0
 10
108.129260
 20
124.515120
 30
0.0
 10
108.412180
 20
124.602920
 30
0.0
 10
108.561840
 20
124.625720
 30
0.0
 10
108.715950
 20
124.633720
 30
0.0
 10
109.011370
 20
124.604520
 30
0.0
 10
109.292750
 20
124.519020
 30
0.0
 10
109.552170
 20
124.380520
 30
0.0
 10
109.781740
 20
124.192290
 30
0.0
 10
109.969970
 20
123.962730
 30
0.0
 10
110.108470
 20
123.703300
 30
0.0
 10
110.193970
 20
123.421930
 30
0.0
 10
110.223170
 20
123.126500
 30
0.0
  0
LWPOLYLINE
  5
106
100
AcDbEntity
  8
Layer_1
 62
1
100
AcDbPolyline
 90
37
 70
1
 10
117.909020
 20
48.632470
 30
0.0
 10
117.841320
 20
47.947860
 30
0.0
 10
117.643170
 20
47.295780
 30
0.0
 10
117.322210
 20
46.694600
 30
0.0
 10
116.886000
 20
46.162590
 30
0.0
 10
116.353990
 20
45.726380
 30
0.0
 10
115.752800
 20
45.405420
 30
0.0
 10
115.100730
 20
45.207270
 30
0.0
 10
114.416110
 20
45.139570
 30
0.0
 10
114.058970
 20
45.157670
 30
0.0
 10
113.712150
 20
45.210570
 30
0.0
 10
113.056500
 20
45.414080
 30
0.0
 10
112.463170
 20
45.736140
 30
0.0
 10
111.946220
 20
46.162660
 30
0.0
 10
111.519700
 20
46.679600
 30
0.0
 10
111.197650
 20
47.272940
 30
0.0
 10
110.994110
 20
47.928600
 30
0.0
 10
110.941210
 20
48.275400
 30
0.0
 10
110.923210
 20
48.632540
 30
0.0
 10
110.941210
 20
48.989680
 30
0.0
 10
110.994110
 20
49.336520
 30
0.0
 10
111.197650
 20
49.992170
 30
0.0
 10
111.519700
 20
50.585500
 30
0.0
 10
111.946220
 20
51.102440
 30
0.0
 10
112.463170
 20
51.528960
 30
0.0
 10
113.056500
 20
51.851020
 30
0.0
 10
113.712150
 20
52.054530
 30
0.0
 10
114.058970
 20
52.107430
 30
0.0
 10
114.416110
 20
52.125530
 30
0.0
 10
115.100720
 20
52.057830
 30
0.0
 10
115.752800
 20
51.859670
 30
0.0
 10
116.353990
 20
51.538710
 30
0.0
 10
116.886000
 20
51.102500
 30
0.0
 10
117.322210
 20
50.570510
 30
0.0
 10
117.643170
 20
49.969310
 30
0.0
 10
117.841310
 20
49.317240
 30
0.0
 10
117.909010
 20
48.632620
 30
0.0
  0
LWPOLYLINE
  5
107
100
AcDbEntity
  8
Layer_1
 62
1
100
AcDbPolyline
 90
37
 70
1
 10
138.229020
 20
48.512470
 30
0.0
 10
138.161320
 20
47.827850
 30
0.0
 10
137.963180
 20
47.175770
 30
0.0
 10
137.642220
 20
46.574580
 30
0.0
 10
137.206010
 20
46.042570
 30
0.0
 10
136.673990
 20
45.606350
 30
0.0
 10
136.072810
 20
45.285390
 30
0.0
 10
135.420730
 20
45.087260
 30
0.0
 10
134.736110
 20
45.019560
 30
0.0
 10
134.378970
 20
45.037660
 30
0.0
 10
134.032140
 20
45.090560
 30
0.0
 10
133.376490
 20
45.294070
 30
0.0
 10
132.783160
 20
45.616120
 30
0.0
 10
132.266210
 20
46.042650
 30
0.0
 10
131.839690
 20
46.559600
 30
0.0
 10
131.517640
 20
47.152930
 30
0.0
 10
131.314100
 20
47.808600
 30
0.0
 10
131.261200
 20
48.155400
 30
0.0
 10
131.243200
 20
48.512540
 30
0.0
 10
131.261200
 20
48.869680
 30
0.0
 10
131.314100
 20
49.216510
 30
0.0
 10
131.517640
 20
49.872150
 30
0.0
 10
131.839690
 20
50.465480
 30
0.0
 10
132.266210
 20
50.982440
 30
0.0
 10
132.783160
 20
51.408960
 30
0.0
 10
133.376490
 20
51.731020
 30
0.0
 10
134.032140
 20
51.934530
 30
0.0
 10
134.378970
 20
51.987430
 30
0.0
 10
134.736110
 20
52.005530
 30
0.0
 10
135.420720
 20
51.937830
 30
0.0
 10
136.072800
 20
51.739670
 30
0.0
 10
136.673990
 20
51.418710
 30
0.0
 10
137.206000
 20
50.982500
 30
0.0
 10
137.642210
 20
50.450500
 30
0.0
 10
137.963180
 20
49.849290
 30
0.0
 10
138.161320
 20
49.197240
 30
0.0
 10
138.229020
 20
48.512600
 30
0.0
  0
LWPOLYLINE
  5
108
100
AcDbEntity
  8
Layer_1
 62
1
100
AcDbPolyline
 90
37
 70
1
 10
158.588980
 20
48.752470
 30
0.0
 10
158.521280
 20
48.067870
 30
0.0
 10
158.323140
 20
47.415790
 30
0.0
 10
158.002180
 20
46.814620
 30
0.0
 10
157.565980
 20
46.282610
 30
0.0
 10
157.033970
 20
45.846400
 30
0.0
 10
156.432790
 20
45.525450
 30
0.0
 10
155.780720
 20
45.327310
 30
0.0
 10
155.096120
 20
45.259610
 30
0.0
 10
154.738980
 20
45.277710
 30
0.0
 10
154.392160
 20
45.330610
 30
0.0
 10
153.736520
 20
45.534120
 30
0.0
 10
153.143200
 20
45.856170
 30
0.0
 10
152.626250
 20
46.282690
 30
0.0
 10
152.199740
 20
46.799630
 30
0.0
 10
151.877690
 20
47.392950
 30
0.0
 10
151.674150
 20
48.048610
 30
0.0
 10
151.621250
 20
48.395410
 30
0.0
 10
151.603250
 20
48.752550
 30
0.0
 10
151.621250
 20
49.109680
 30
0.0
 10
151.674150
 20
49.456510
 30
0.0
 10
151.877690
 20
50.112140
 30
0.0
 10
152.199740
 20
50.705460
 30
0.0
 10
152.626250
 20
51.222410
 30
0.0
 10
153.143200
 20
51.648920
 30
0.0
 10
153.736520
 20
51.970970
 30
0.0
 10
154.392160
 20
52.174490
 30
0.0
 10
154.738980
 20
52.227390
 30
0.0
 10
155.096110
 20
52.245490
 30
0.0
 10
155.780720
 20
52.177790
 30
0.0
 10
156.432790
 20
51.979640
 30
0.0
 10
157.033970
 20
51.658670
 30
0.0
 10
157.565970
 20
51.222460
 30
0.0
 10
158.002180
 20
50.690490
 30
0.0
 10
158.323140
 20
50.089280
 30
0.0
 10
158.521280
 20
49.437240
 30
0.0
 10
158.588980
 20
48.752610
 30
0.0
  0
LWPOLYLINE
  5
109
100
AcDbEntity
  8
Layer_1
 62
1
100
AcDbPolyline
 90
37
 70
1
 10
161.974510
 20
101.481950
 30
0.0
 10
161.935010
 20
101.082490
 30
0.0
 10
161.819390
 20
100.701970
 30
0.0
 10
161.632110
 20
100.351200
 30
0.0
 10
161.377570
 20
100.040720
 30
0.0
 10
161.067140
 20
99.786230
 30
0.0
 10
160.716340
 20
99.598940
 30
0.0
 10
160.335840
 20
99.483320
 30
0.0
 10
159.936360
 20
99.443820
 30
0.0
 10
159.727960
 20
99.454320
 30
0.0
 10
159.525590
 20
99.485120
 30
0.0
 10
159.143010
 20
99.603850
 30
0.0
 10
158.796790
 20
99.791810
 30
0.0
 10
158.495150
 20
100.040620
 30
0.0
 10
158.246270
 20
100.342310
 30
0.0
 10
158.058340
 20
100.688480
 30
0.0
 10
157.939580
 20
101.071170
 30
0.0
 10
157.908680
 20
101.273470
 30
0.0
 10
157.898180
 20
101.481850
 30
0.0
 10
157.908680
 20
101.690230
 30
0.0
 10
157.939580
 20
101.892660
 30
0.0
 10
158.058340
 20
102.275210
 30
0.0
 10
158.246270
 20
102.621520
 30
0.0
 10
158.495150
 20
102.923070
 30
0.0
 10
158.796790
 20
103.172020
 30
0.0
 10
159.143010
 20
103.359850
 30
0.0
 10
159.525590
 20
103.478710
 30
0.0
 10
159.727960
 20
103.509510
 30
0.0
 10
159.936360
 20
103.520010
 30
0.0
 10
160.335840
 20
103.480510
 30
0.0
 10
160.716340
 20
103.364890
 30
0.0
 10
161.067140
 20
103.177600
 30
0.0
 10
161.377570
 20
102.922980
 30
0.0
 10
161.632100
 20
102.612630
 30
0.0
 10
161.819390
 20
102.261730
 30
0.0
 10
161.935010
 20
101.881340
 30
0.0
 10
161.974510
 20
101.481750
 30
0.0
  0
ENDSEC
  0
SECTION
  2
OBJECTS
  0
DICTIONARY
  5
C
330
0
100
AcDbDictionary
  3
ACAD_GROUP
350
D
  3
ACAD_MLINESTYLE
350
17
  0
DICTIONARY
  5
D
330
C
100
AcDbDictionary
  0
DICTIONARY
  5
1A
330
C
100
AcDbDictionary
  0
DICTIONARY
  5
17
330
C
100
AcDbDictionary
  3
STANDARD
350
18
  0
DICTIONARY
  5
19
330
C
100
AcDbDictionary
  0
ENDSEC
  0
EOF
