<?xml version="1.0" encoding="UTF-8" standalone="no"?>
<!-- Created with Inkscape (http://www.inkscape.org/) -->

<svg
   width="210mm"
   height="297mm"
   viewBox="0 0 210 297"
   version="1.1"
   id="svg10520"
   inkscape:version="1.1 (c4e8f9e, 2021-05-24)"
   sodipodi:docname="drawing.svg"
   xmlns:inkscape="http://www.inkscape.org/namespaces/inkscape"
   xmlns:sodipodi="http://sodipodi.sourceforge.net/DTD/sodipodi-0.dtd"
   xmlns="http://www.w3.org/2000/svg"
   xmlns:svg="http://www.w3.org/2000/svg">
  <sodipodi:namedview
     id="namedview10522"
     pagecolor="#ffffff"
     bordercolor="#666666"
     borderopacity="1.0"
     inkscape:pageshadow="2"
     inkscape:pageopacity="0.0"
     inkscape:pagecheckerboard="0"
     inkscape:document-units="mm"
     showgrid="false"
     inkscape:zoom="0.75187991"
     inkscape:cx="609.80483"
     inkscape:cy="609.80483"
     inkscape:window-width="1864"
     inkscape:window-height="1016"
     inkscape:window-x="56"
     inkscape:window-y="27"
     inkscape:window-maximized="1"
     inkscape:current-layer="layer1"
     inkscape:snap-global="false" />
  <defs
     id="defs10517" />
  <g
     inkscape:groupmode="layer"
     id="layer2"
     inkscape:label="baord"
     style="display:none" />
  <g
     inkscape:label="Layer 1"
     inkscape:groupmode="layer"
     id="layer1"
     style="display:inline">
    <path
       id="rect2178-3"
       style="display:inline;fill:none;stroke:#ff0000;stroke-width:0.1;stroke-linecap:round;stroke-linejoin:round;stroke-miterlimit:4;stroke-dasharray:none;stop-color:#000000"
       d="m 110.21826,169.92216 h 49.1158 l 0.55661,0.0279 0.54019,0.082 0.521,0.13337 0.4993,0.18205 0.47481,0.22804 0.4476,0.27136 0.41769,0.31198 0.3851,0.34992 0.35,0.38516 0.3119,0.41771 0.2714,0.44759 0.228,0.47477 0.1821,0.49927 0.1334,0.52107 0.0819,0.54019 0.028,0.55662 v 79.21419 l -0.028,0.5566 -0.0819,0.5402 -0.1334,0.521 -0.1821,0.4993 -0.228,0.4748 -0.2714,0.4476 -0.3119,0.4177 -0.35,0.3851 -0.3851,0.3499 -0.41769,0.312 -0.4476,0.2714 -0.47481,0.228 -0.4993,0.1821 -0.521,0.1333 -0.54019,0.082 -0.55661,0.028 h -49.1158 l -0.55662,-0.028 -0.5402,-0.082 -0.52106,-0.1333 -0.49928,-0.1821 -0.47477,-0.228 -0.44759,-0.2714 -0.41772,-0.312 -0.38515,-0.3499 -0.34992,-0.3851 -0.31197,-0.4177 -0.27137,-0.4476 -0.22805,-0.4748 -0.18205,-0.4993 -0.13335,-0.521 -0.082,-0.5402 -0.0279,-0.5566 v -79.21419 l 0.0279,-0.55662 0.082,-0.54019 0.13335,-0.52107 0.18205,-0.49927 0.22805,-0.47477 0.27137,-0.44759 0.31197,-0.41771 0.34992,-0.38516 0.38515,-0.34992 0.41772,-0.31198 0.44759,-0.27136 0.47477,-0.22804 0.49928,-0.18205 0.52106,-0.13337 0.5402,-0.082 0.55662,-0.0279 v 0" />
    <path
       id="path2476-7"
       style="display:inline;fill:none;stroke:#ff0000;stroke-width:0.1;stroke-linecap:round;stroke-linejoin:round;stroke-miterlimit:4;stroke-dasharray:none;stop-color:#000000"
       d="m 162.71065,256.31326 -0.0293,0.2954 -0.0855,0.2814 -0.1385,0.2594 -0.1882,0.2296 -0.2296,0.1882 -0.2594,0.1385 -0.2814,0.0855 -0.2954,0.0292 -0.1541,-0.008 -0.1497,-0.0228 -0.2829,-0.0878 -0.256,-0.139 -0.2231,-0.184 -0.184,-0.2231 -0.139,-0.256 -0.0878,-0.283 -0.0229,-0.1496 -0.008,-0.1541 0.008,-0.1541 0.0229,-0.1497 0.0878,-0.2829 0.139,-0.2561 0.184,-0.223 0.2231,-0.1841 0.256,-0.1389 0.2829,-0.0879 0.1497,-0.0228 0.1541,-0.008 0.1541,0.008 0.1497,0.0228 0.2829,0.0879 0.256,0.1389 0.2231,0.1841 0.184,0.223 0.139,0.2561 0.0878,0.2829 0.0229,0.1497 0.008,0.1541 v 0" />
    <path
       id="path2706-5"
       style="display:inline;fill:none;stroke:#ff0000;stroke-width:0.1;stroke-linecap:round;stroke-linejoin:round;stroke-miterlimit:4;stroke-dasharray:none;stop-color:#000000"
       d="m 110.21029,256.31164 -0.0292,0.2954 -0.0855,0.2814 -0.1385,0.2594 -0.18823,0.2296 -0.22957,0.1882 -0.25942,0.1385 -0.28138,0.0855 -0.29542,0.0292 -0.15411,-0.008 -0.14966,-0.0228 -0.28292,-0.0878 -0.25603,-0.139 -0.22307,-0.184 -0.18405,-0.2231 -0.13897,-0.256 -0.0878,-0.283 -0.0228,-0.1496 -0.008,-0.1541 0.008,-0.1541 0.0228,-0.1497 0.0878,-0.2829 0.13897,-0.2561 0.18405,-0.223 0.22307,-0.1841 0.25603,-0.1389 0.28292,-0.0879 0.14966,-0.0228 0.15411,-0.008 0.29542,0.0292 0.28138,0.0855 0.25942,0.1385 0.22957,0.1883 0.18823,0.2295 0.1385,0.2595 0.0855,0.2813 0.0292,0.2955 v 0" />
    <path
       id="path2706-5-1"
       style="display:inline;fill:none;stroke:#ff0000;stroke-width:0.123634;stroke-linecap:round;stroke-linejoin:round;stroke-miterlimit:4;stroke-dasharray:none;stop-color:#000000"
       d="m 112.03043,195.35812 -0.0395,0.39946 -0.11562,0.38052 -0.18728,0.35077 -0.25454,0.31048 -0.31043,0.25449 -0.3508,0.18729 -0.3805,0.11562 -0.39948,0.0395 -0.20839,-0.0105 -0.20238,-0.0308 -0.38258,-0.11872 -0.34621,-0.18797 -0.30165,-0.24881 -0.24888,-0.30169 -0.18792,-0.34617 -0.11877,-0.38269 -0.0309,-0.2023 -0.0105,-0.20838 0.0105,-0.20838 0.0309,-0.20243 0.11877,-0.38255 0.18792,-0.34631 0.24888,-0.30155 0.30165,-0.24895 0.34621,-0.18783 0.38258,-0.11886 0.20238,-0.0308 0.20839,-0.0105 0.39948,0.0395 0.3805,0.11562 0.3508,0.18729 0.31044,0.25463 0.25453,0.31034 0.18729,0.35091 0.11561,0.38038 0.0395,0.39959 v 0" />
    <path
       id="path2708-3"
       style="display:inline;fill:none;stroke:#ff0000;stroke-width:0.1;stroke-linecap:round;stroke-linejoin:round;stroke-miterlimit:4;stroke-dasharray:none;stop-color:#000000"
       d="m 162.71105,173.88322 -0.0293,0.29542 -0.0855,0.28138 -0.1385,0.25942 -0.1882,0.22957 -0.2296,0.18823 -0.25939,0.1385 -0.28141,0.0855 -0.2954,0.0292 -0.1541,-0.008 -0.1497,-0.0228 -0.28289,-0.0878 -0.25601,-0.13897 -0.2231,-0.18405 -0.184,-0.22307 -0.13899,-0.25603 -0.0878,-0.28293 -0.0229,-0.14965 -0.008,-0.15411 0.008,-0.15411 0.0229,-0.14966 0.0878,-0.28292 0.13899,-0.25603 0.184,-0.22307 0.2231,-0.18405 0.25601,-0.13897 0.28289,-0.0878 0.1497,-0.0228 0.1541,-0.008 0.1541,0.008 0.1497,0.0228 0.2829,0.0878 0.256,0.13897 0.2231,0.18405 0.184,0.22307 0.139,0.25603 0.0878,0.28292 0.0229,0.14966 0.008,0.15411 v 0" />
    <path
       id="path2710-5"
       style="display:inline;fill:none;stroke:#ff0000;stroke-width:0.1;stroke-linecap:round;stroke-linejoin:round;stroke-miterlimit:4;stroke-dasharray:none;stop-color:#000000"
       d="m 110.22317,173.87388 -0.0292,0.29542 -0.0855,0.28138 -0.1385,0.25942 -0.18823,0.22957 -0.22957,0.18823 -0.25942,0.1385 -0.28138,0.0855 -0.29542,0.0292 -0.15411,-0.008 -0.14966,-0.0228 -0.28292,-0.0878 -0.25603,-0.13897 -0.22307,-0.18405 -0.18405,-0.22307 -0.13897,-0.25603 -0.0878,-0.28293 -0.0228,-0.14965 -0.008,-0.15411 0.008,-0.15411 0.0228,-0.14966 0.0878,-0.28292 0.13897,-0.25603 0.18405,-0.22307 0.22307,-0.18405 0.25603,-0.13897 0.28292,-0.0878 0.14966,-0.0228 0.15411,-0.008 0.29542,0.0292 0.28138,0.0855 0.25942,0.1385 0.22957,0.18823 0.18823,0.22956 0.1385,0.25943 0.0855,0.28137 0.0292,0.29543 v 0" />
    <path
       id="path2710-5-6"
       style="display:inline;fill:none;stroke:#ff0000;stroke-width:0.114089;stroke-linecap:round;stroke-linejoin:round;stroke-miterlimit:4;stroke-dasharray:none;stop-color:#000000"
       d="m 117.90902,248.36753 -0.0677,0.68461 -0.19815,0.65208 -0.32096,0.60118 -0.43621,0.53201 -0.53201,0.43621 -0.60119,0.32096 -0.65207,0.19815 -0.68462,0.0677 -0.35714,-0.0181 -0.34682,-0.0529 -0.65565,-0.20351 -0.59333,-0.32206 -0.51695,-0.42652 -0.42652,-0.51694 -0.32205,-0.59334 -0.20354,-0.65566 -0.0529,-0.3468 -0.018,-0.35714 0.018,-0.35714 0.0529,-0.34684 0.20354,-0.65565 0.32205,-0.59333 0.42652,-0.51694 0.51695,-0.42652 0.59333,-0.32206 0.65565,-0.20351 0.34682,-0.0529 0.35714,-0.0181 0.68461,0.0677 0.65208,0.19816 0.60119,0.32096 0.53201,0.43621 0.43621,0.53199 0.32096,0.6012 0.19814,0.65207 0.0677,0.68462 v 0" />
    <path
       id="path2710-5-6-2"
       style="display:inline;fill:none;stroke:#ff0000;stroke-width:0.114089;stroke-linecap:round;stroke-linejoin:round;stroke-miterlimit:4;stroke-dasharray:none;stop-color:#000000"
       d="m 138.22902,248.48753 -0.0677,0.68462 -0.19814,0.65208 -0.32096,0.60119 -0.43621,0.53201 -0.53202,0.43622 -0.60118,0.32096 -0.65208,0.19813 -0.68462,0.0677 -0.35714,-0.0181 -0.34683,-0.0529 -0.65565,-0.20351 -0.59333,-0.32205 -0.51695,-0.42653 -0.42652,-0.51695 -0.32205,-0.59333 -0.20354,-0.65567 -0.0529,-0.3468 -0.018,-0.35714 0.018,-0.35714 0.0529,-0.34683 0.20354,-0.65564 0.32205,-0.59333 0.42652,-0.51696 0.51695,-0.42652 0.59333,-0.32206 0.65565,-0.20351 0.34683,-0.0529 0.35714,-0.0181 0.68461,0.0677 0.65208,0.19816 0.60119,0.32096 0.53201,0.43621 0.43621,0.532 0.32097,0.60121 0.19814,0.65205 0.0677,0.68464 v 0" />
    <path
       id="path2710-5-6-9"
       style="display:inline;fill:none;stroke:#ff0000;stroke-width:0.114087;stroke-linecap:round;stroke-linejoin:round;stroke-miterlimit:4;stroke-dasharray:none;stop-color:#000000"
       d="m 158.58898,248.24753 -0.0677,0.6846 -0.19814,0.65208 -0.32096,0.60117 -0.4362,0.53201 -0.53201,0.43621 -0.60118,0.32095 -0.65207,0.19814 -0.6846,0.0677 -0.35714,-0.0181 -0.34682,-0.0529 -0.65564,-0.20351 -0.59332,-0.32205 -0.51695,-0.42652 -0.42651,-0.51694 -0.32205,-0.59332 -0.20354,-0.65566 -0.0529,-0.3468 -0.018,-0.35714 0.018,-0.35713 0.0529,-0.34683 0.20354,-0.65563 0.32205,-0.59332 0.42651,-0.51695 0.51695,-0.42651 0.59332,-0.32205 0.65564,-0.20352 0.34682,-0.0529 0.35713,-0.0181 0.68461,0.0677 0.65207,0.19815 0.60118,0.32097 0.532,0.43621 0.43621,0.53197 0.32096,0.60121 0.19814,0.65204 0.0677,0.68463 v 0" />
    <path
       id="path2706-5-1-7"
       style="display:inline;fill:none;stroke:#ff0000;stroke-width:0.123634;stroke-linecap:round;stroke-linejoin:round;stroke-miterlimit:4;stroke-dasharray:none;stop-color:#000000"
       d="m 161.97451,195.51805 -0.0395,0.39946 -0.11562,0.38052 -0.18728,0.35077 -0.25454,0.31048 -0.31043,0.25449 -0.3508,0.18729 -0.3805,0.11562 -0.39948,0.0395 -0.2084,-0.0105 -0.20237,-0.0308 -0.38258,-0.11873 -0.34622,-0.18796 -0.30164,-0.24881 -0.24888,-0.30169 -0.18793,-0.34617 -0.11876,-0.38269 -0.0309,-0.2023 -0.0105,-0.20838 0.0105,-0.20838 0.0309,-0.20243 0.11876,-0.38255 0.18793,-0.34631 0.24888,-0.30155 0.30164,-0.24895 0.34622,-0.18783 0.38258,-0.11886 0.20237,-0.0308 0.2084,-0.0105 0.39948,0.0395 0.3805,0.11562 0.3508,0.18729 0.31043,0.25462 0.25453,0.31035 0.18729,0.3509 0.11562,0.38039 0.0395,0.39959 v 0" />
  </g>
</svg>
